<svg width="400" height="400" viewBox="0 0 400 400" fill="none" xmlns="http://www.w3.org/2000/svg">
<mask id="mask0_34_2" style="mask-type:alpha" maskUnits="userSpaceOnUse" x="0" y="0" width="400" height="400">
<path d="M200 0C173.736 0 147.728 5.17316 123.463 15.2241C99.1982 25.275 77.1504 40.0069 58.5786 58.5786C40.0069 77.1504 25.275 99.1982 15.2241 123.463C5.17315 147.728 -1.14805e-06 173.736 0 200C1.14805e-06 226.264 5.17316 252.272 15.2241 276.537C25.275 300.802 40.0069 322.85 58.5787 341.421C77.1504 359.993 99.1982 374.725 123.463 384.776C147.728 394.827 173.736 400 200 400L200 200L200 0Z" fill="#9552EA"/>
<path d="M200 400C226.264 400 252.272 394.827 276.537 384.776C300.802 374.725 322.85 359.993 341.421 341.421C359.993 322.85 374.725 300.802 384.776 276.537C394.827 252.272 400 226.264 400 200C400 173.736 394.827 147.728 384.776 123.463C374.725 99.1982 359.993 77.1504 341.421 58.5786C322.85 40.0069 300.802 25.275 276.537 15.2241C252.272 5.17315 226.264 -2.2961e-06 200 0L200 200V400Z" fill="#844ACD"/>
</mask>
<g mask="url(#mask0_34_2)">
<path d="M200 52C241.421 52 275 85.5786 275 127V137C275 178.421 241.421 212 200 212C158.579 212 125 178.421 125 137V127C125 85.5786 158.579 52 200 52Z" fill="black"/>
<mask id="mask1_34_2" style="mask-type:alpha" maskUnits="userSpaceOnUse" x="125" y="52" width="150" height="160">
<path d="M200 52C241.421 52 275 85.5786 275 127V137C275 178.421 241.421 212 200 212C158.579 212 125 178.421 125 137V127C125 85.5786 158.579 52 200 52Z" fill="#F1B415"/>
</mask>
<g mask="url(#mask1_34_2)">
<path d="M200.573 32.5525H289.885V233.215H200.573V32.5525Z" fill="black"/>
</g>
<path d="M63 375.5C63 299.561 124.561 238 200.5 238C276.439 238 338 299.561 338 375.5V382.133C338 422.376 305.376 455 265.133 455H135.867C95.6237 455 63 422.376 63 382.133V375.5Z" fill="black"/>
<mask id="mask2_34_2" style="mask-type:alpha" maskUnits="userSpaceOnUse" x="63" y="238" width="275" height="217">
<path d="M63 375.5C63 299.561 124.561 238 200.5 238C276.439 238 338 299.561 338 375.5V382.133C338 422.376 305.376 455 265.133 455H135.867C95.6237 455 63 422.376 63 382.133V375.5Z" fill="#FFB800"/>
</mask>
<g mask="url(#mask2_34_2)">
<rect x="201.052" y="155.731" width="155.723" height="380.346" fill="black"/>
</g>
</g>
</svg>
