<?xml version="1.0" encoding="UTF-8"?>
<!DOCTYPE svg PUBLIC "-//W3C//DTD SVG 1.1//EN" "http://www.w3.org/Graphics/SVG/1.1/DTD/svg11.dtd">
<svg xmlns="http://www.w3.org/2000/svg" version="1.1" width="512px" height="512px" style="shape-rendering:geometricPrecision; text-rendering:geometricPrecision; image-rendering:optimizeQuality; fill-rule:evenodd; clip-rule:evenodd" xmlns:xlink="http://www.w3.org/1999/xlink">
<g><path style="opacity:0.997" fill="#ffc106" d="M 250.5,-0.5 C 253.833,-0.5 257.167,-0.5 260.5,-0.5C 263.845,0.60473 266.678,2.60473 269,5.5C 293.397,56.2918 317.231,107.292 340.5,158.5C 392.857,166.099 445.191,173.932 497.5,182C 504.072,183.085 508.739,186.585 511.5,192.5C 511.5,196.5 511.5,200.5 511.5,204.5C 503.569,213.604 495.402,222.604 487,231.5C 456,263.167 425,294.833 394,326.5C 402.337,382.692 411.17,438.859 420.5,495C 419.997,503.215 415.997,508.715 408.5,511.5C 405.5,511.5 402.5,511.5 399.5,511.5C 351.557,485.192 303.557,458.859 255.5,432.5C 207.443,458.859 159.443,485.192 111.5,511.5C 108.5,511.5 105.5,511.5 102.5,511.5C 95.0029,508.715 91.0029,503.215 90.5,495C 99.8295,438.859 108.663,382.692 117,326.5C 86.3333,295.167 55.6667,263.833 25,232.5C 16.2651,223.27 7.76505,213.937 -0.5,204.5C -0.5,200.5 -0.5,196.5 -0.5,192.5C 2.26108,186.585 6.92774,183.085 13.5,182C 65.9132,174.251 118.247,166.084 170.5,157.5C 194.06,106.713 217.894,56.0459 242,5.5C 244.322,2.60473 247.155,0.60473 250.5,-0.5 Z"/></g>
</svg>
